<svg width="200" height="80" viewBox="0 0 200 80" fill="none" xmlns="http://www.w3.org/2000/svg">
<path d="M193.815 28.0359H185.644C185.644 28.0359 183.015 23.5928 185.187 20.1045C185.187 20.1045 187.815 16.3235 191.986 18.6659C191.986 18.6659 195.758 20.0715 193.815 28.0359ZM130.554 28.0946H112.382L115.754 22.4724C120.497 16.8505 126.497 18.0804 126.497 18.0804C132.726 20.4813 130.554 28.0946 130.554 28.0946ZM195.53 14.0981C195.53 14.0981 186.387 9.06165 180.215 17.3775C180.215 17.3775 177.014 22.3749 179.681 28.075C179.681 28.075 173.433 29.012 173.662 22.375L173.656 16.5967H168.176V24.327C168.176 24.327 168.024 28.3092 164.671 28.1531C164.671 28.1531 160.708 28.3873 160.708 25.0297V16.7528L155.07 16.5967V24.8735C155.07 24.8735 154.918 28.3092 151.794 28.075C151.794 28.075 147.832 28.6216 147.679 25.1859V16.5967L142.04 16.5186V24.0927C142.04 24.0927 142.574 29.2462 136.25 28.075C136.25 28.075 138.612 16.4405 129.393 13.161C129.393 13.161 119.944 9.33487 112.554 21.2036V6.91436H106.763V27.9188L102.496 27.9969V33.0825H138.688C138.688 33.0825 143.24 33.1894 145.298 30.9055C145.298 30.9055 147.584 33.7971 153.413 33.0833C153.413 33.0833 156.099 33.0723 158.613 31.0227C158.613 31.0227 161.642 33.848 166.729 33.1967C166.729 33.1967 170.042 32.8381 171.929 30.3785C171.929 30.3785 173.414 33.3403 178.272 33.2942L197.992 33.0825C197.992 33.0825 203.531 20.54 195.53 14.0981Z" fill="white"/>
<path d="M95.2958 6.91354H100.896V12.7502C100.896 12.7502 101.468 20.7147 91.867 20.7734H57.9221C57.9221 20.7734 51.0074 20.5977 50.7217 24.1115C50.7217 24.1115 50.4359 26.3954 54.5504 27.5666C54.5504 27.5666 60.2652 28.0351 61.5795 27.9765L80.6092 27.9816L80.6664 33.3057H57.5792C57.5792 33.3057 45.5214 33.7742 45.3499 25.0484C45.3499 25.0484 43.9212 16.264 55.6935 15.6199H90.5526C90.5526 15.6199 95.5815 16.4397 95.4673 10.0563L95.2958 6.91354Z" fill="white"/>
<path d="M90.495 27.7312C90.495 29.4346 89.1475 30.8155 87.4853 30.8155C85.8231 30.8155 84.4757 29.4346 84.4757 27.7312C84.4757 26.0279 85.8231 24.6469 87.4853 24.6469C89.1475 24.6469 90.495 26.0279 90.495 27.7312Z" fill="white"/>
<path d="M97.9245 27.7312C97.9245 29.4346 96.577 30.8155 94.9148 30.8155C93.2525 30.8155 91.9051 29.4346 91.9051 27.7312C91.9051 26.0279 93.2525 24.6469 94.9148 24.6469C96.577 24.6469 97.9245 26.0279 97.9245 27.7312Z" fill="white"/>
<path d="M188.852 3.08426C188.852 4.78772 187.504 6.16852 185.842 6.16852C184.179 6.16852 182.831 4.78772 182.831 3.08426C182.831 1.3808 184.179 -1.23978e-05 185.842 -1.23978e-05C187.504 -1.23978e-05 188.852 1.3808 188.852 3.08426Z" fill="white"/>
<path d="M196.28 3.08426C196.28 4.78772 194.932 6.16852 193.27 6.16852C191.608 6.16852 190.261 4.78772 190.261 3.08426C190.261 1.3808 191.608 -1.23978e-05 193.27 -1.23978e-05C194.932 -1.23978e-05 196.28 1.3808 196.28 3.08426Z" fill="white"/>
<path d="M94.3814 34.1726C94.3814 35.8761 93.0338 37.2569 91.3717 37.2569C89.7094 37.2569 88.3619 35.8761 88.3619 34.1726C88.3619 32.4693 89.7094 31.0883 91.3717 31.0883C93.0338 31.0883 94.3814 32.4693 94.3814 34.1726Z" fill="white"/>
<path d="M39.1781 22.0621L34.6444 7.38244C34.6444 7.38244 33.692 3.40016 29.5012 5.11808L6.0332 13.0044L4.77597 13.375C4.77597 13.375 1.06145 14.6832 2.37584 17.9042L6.71895 31.198L20.434 73.8314L20.8912 75.2369C20.8912 75.2369 21.9199 78.5749 25.5772 77.1695L39.7495 72.4259C39.7495 72.4259 41.2067 71.7818 41.6354 72.8066C41.6354 72.8066 42.2925 73.9193 40.5782 74.4463L26.2916 79.2778C26.2916 79.2778 21.034 81.708 19.0339 76.5546L0.289978 18.5191C0.289978 18.5191 -1.56728 13.1899 4.11883 11.1988L28.2917 3.11717C28.2917 3.11717 34.2064 0.335457 36.3493 5.63532L41.2353 20.7445L41.6067 22.0914C41.6067 22.0914 42.2069 23.3798 40.921 23.7604C40.921 23.7604 40.0248 24.0474 39.5209 22.7941L39.1781 22.0621Z" fill="white"/>
<path d="M35.7128 63.9703C34.8095 63.9703 34.0745 64.7234 34.0745 65.6491C34.0745 66.5747 34.8095 67.328 35.7128 67.328C36.6161 67.328 37.351 66.5747 37.351 65.6491C37.351 64.7234 36.6161 63.9703 35.7128 63.9703ZM35.7128 69.8035C33.4775 69.8035 31.659 67.9397 31.659 65.6491C31.659 63.3584 33.4775 61.4948 35.7128 61.4948C37.9482 61.4948 39.7666 63.3584 39.7666 65.6491C39.7666 67.9397 37.9482 69.8035 35.7128 69.8035Z" fill="white"/>
<path d="M46.2456 36.7948H51.5974L51.6975 53.807L62.9505 43.8477L69.1223 43.9258L60.0573 53.0025L70.1891 70.1511H63.9929L55.9604 56.2381L51.8119 60.146V70.1511H46.2456V36.7948Z" fill="white"/>
<path d="M86.8138 61.9372C86.9401 63.628 87.4778 64.8576 88.4261 65.626C89.3745 66.3945 90.7717 66.7789 92.618 66.7789C93.503 66.7789 94.2494 66.6828 94.8562 66.4907C95.4634 66.2984 95.9564 66.0427 96.3359 65.7221C96.7152 65.4021 96.9867 65.0243 97.1516 64.5886C97.3156 64.1533 97.398 63.6795 97.398 63.1669C97.398 62.4499 97.1325 61.7774 96.6014 61.1495C96.0703 60.5221 95.0964 60.0675 93.6803 59.7853L90.1522 59.132C88.7611 58.8763 87.5346 58.5432 86.4723 58.133C85.4102 57.7236 84.5188 57.1916 83.7979 56.5384C83.0771 55.8851 82.527 55.0848 82.1476 54.1368C81.7683 53.1894 81.5787 52.0618 81.5787 50.7552C81.5787 49.4488 81.8376 48.2961 82.3563 47.2969C82.8744 46.2978 83.5952 45.4658 84.5187 44.7994C85.4415 44.1335 86.5483 43.6273 87.838 43.2816C89.1279 42.9357 90.544 42.7627 92.087 42.7627C94.0596 42.7627 95.7034 42.9934 97.0186 43.4544C98.3334 43.9156 99.3957 44.5243 100.205 45.2796C101.014 46.0356 101.615 46.9127 102.007 47.9118C102.399 48.9109 102.658 49.9484 102.785 51.0243L97.436 51.7159C97.1575 50.2048 96.6203 49.1162 95.8236 48.4498C95.027 47.7839 93.8191 47.4507 92.2008 47.4507C91.2393 47.4507 90.4491 47.5342 89.8298 47.7005C89.2098 47.8675 88.7107 48.0848 88.3312 48.3537C87.9519 48.6226 87.6863 48.9368 87.5346 49.2951C87.3829 49.6541 87.307 50.0252 87.307 50.4094C87.307 51.4344 87.5915 52.2028 88.1605 52.7151C88.7296 53.2278 89.697 53.6247 91.0627 53.9061L94.7804 54.6363C97.7139 55.2259 99.864 56.18 101.23 57.499C102.595 58.8188 103.278 60.7208 103.278 63.2052C103.278 64.4096 103.056 65.5173 102.614 66.5291C102.171 67.5414 101.514 68.4252 100.641 69.1804C99.7691 69.9362 98.6749 70.5253 97.3601 70.948C96.0447 71.3706 94.5019 71.582 92.7318 71.582C89.039 71.582 86.2127 70.7816 84.2531 69.1804C82.2929 67.5798 81.2372 65.1649 81.0855 61.9372H86.8138Z" fill="white"/>
<path d="M108.363 48.6503L104.473 48.5917V43.8481L108.744 43.77L108.706 36.7952H114.268L114.306 43.77L120.64 43.8774L120.61 48.4941L114.582 48.416L114.439 62.1782C114.497 63.9937 115.285 64.5076 115.821 64.9927C116.355 65.4786 117.047 65.7212 117.897 65.7212C118.337 65.7212 118.785 65.6961 119.241 65.6459C119.697 65.5956 120.145 65.5038 120.586 65.3695L121.459 69.7032C120.547 70.0046 119.658 70.2135 118.793 70.3313C117.928 70.4482 117.102 70.507 116.316 70.507C113.61 70.507 111.605 69.8209 110.3 68.4471C108.995 67.0742 108.342 64.763 108.342 61.5138L108.363 48.6503Z" fill="white"/>
<path d="M129.782 57.1446C129.782 58.8551 129.922 60.2216 130.203 61.244C130.483 62.2674 130.937 63.0972 131.565 63.7334C132.225 64.3375 132.893 64.7317 133.57 64.9158C134.246 65.1007 134.931 65.1923 135.624 65.1923C136.384 65.1923 137.109 65.0419 137.803 64.7395C138.496 64.4378 139.098 63.9599 139.61 63.3064C140.121 62.6529 140.525 61.8059 140.822 60.7661C141.12 59.7272 141.268 58.4696 141.268 56.9934C141.268 55.4513 141.127 54.16 140.848 53.1203C140.567 52.0813 140.18 51.2343 139.684 50.58C139.189 49.9266 138.602 49.4573 137.926 49.1719C137.25 48.8869 136.531 48.7442 135.773 48.7442C134.915 48.7442 134.172 48.8618 133.545 49.0967C132.918 49.3318 132.307 49.7002 131.713 50.2031C131.052 50.8401 130.566 51.6449 130.253 52.6173C129.939 53.5905 129.782 54.8308 129.782 56.3398V57.1446ZM123.754 43.7692L129.431 43.8864V47.5563C131.411 44.7151 134.32 43.0275 137.753 43.0275C141.35 43.0275 144.04 44.2647 145.824 46.7383C147.605 49.2127 148.496 52.6056 148.496 56.9182C148.496 58.9914 148.24 60.8797 147.729 62.5846C147.217 64.2897 146.474 65.7526 145.501 66.9726C144.527 68.1934 143.347 69.1375 141.962 69.8058C140.575 70.4743 139.007 70.8089 137.258 70.8089C135.971 70.8089 134.692 70.5768 133.421 70.113C132.15 69.6492 130.781 68.8201 129.66 67.4285L129.698 80H123.907L123.754 43.7692Z" fill="white"/>
<path d="M166.699 57.7847L163.557 57.9896C162.11 58.0567 160.843 58.4601 159.956 58.6925C159.069 58.9255 158.362 59.4801 157.887 59.8294C157.41 60.1788 156.842 60.8668 156.679 61.3325C156.515 61.7988 156.433 62.3143 156.433 62.8797C156.433 63.7453 156.822 64.5475 157.414 65.0465C158.005 65.5456 158.962 65.8663 160.014 65.8663C161.788 65.8663 163.469 65.4686 164.585 64.6366C165.209 64.1709 165.714 63.3944 166.108 62.6785C166.503 61.9634 166.699 61.0736 166.699 60.0083V57.7847ZM167.398 66.9202C166.378 68.0852 164.764 69.1757 163.5 69.9072C162.235 70.6386 160.308 70.8997 158.306 70.8997C157.156 70.8997 156.063 70.7499 155.028 70.4504C153.994 70.151 153.089 69.6854 152.318 69.053C151.547 68.4212 150.93 67.6141 150.47 66.6322C150.011 65.6512 149.781 64.4784 149.781 63.1135C149.781 61.317 150.175 59.8531 150.963 58.7216C151.752 57.5907 152.787 56.7088 154.068 56.0763C155.348 55.4446 156.705 54.8305 158.299 54.5639C159.892 54.2978 161.542 54.1038 163.185 54.0367L167.137 53.724V52.4262C167.137 50.8292 166.702 49.7311 165.832 49.1322C164.962 48.5333 163.332 48.5899 162.149 48.5899C159.421 48.5899 157.408 49.3052 157.013 51.4014L151.47 50.5816C151.93 47.8536 152.687 46.0636 154.593 44.8488C156.498 43.6344 159.06 43.027 162.279 43.027C164.251 43.027 165.926 43.2687 167.307 43.7507C168.685 44.2333 169.794 44.9235 170.632 45.822C171.47 46.7204 172.193 48.1827 172.57 49.4633C172.948 50.7445 173.137 52.1833 173.137 53.7804L172.785 70.0491H167.472L167.398 66.9202Z" fill="white"/>
<path d="M176.307 73.8655C177.261 74.1317 178.231 74.2653 179.219 74.2653C180.139 74.2653 180.88 74.0404 181.439 73.5906C181.998 73.1407 182.475 72.3488 182.87 71.2164L183.66 69.0172L172.951 44.0759H179.604L186.417 62.8843L192.787 43.8473H198.997L189.728 70.9165C189.137 72.416 188.577 73.7232 188.051 74.8401C187.525 75.9561 186.924 76.8895 186.251 77.6391C185.575 78.3888 184.77 78.9464 183.832 79.3135C182.895 79.6798 181.736 79.8633 180.353 79.8633C179.497 79.8633 178.65 79.8048 177.812 79.6884C176.973 79.5713 176.093 79.3635 175.173 79.0637L176.307 73.8655Z" fill="white"/>
<path d="M78.2982 70.2722H72.4429V52.2712H78.2982V70.2722Z" fill="white"/>
<path d="M78.2982 49.6172H72.4429V43.9836H78.2982V49.6172Z" fill="white"/>
</svg>
