<svg width="241" height="252" viewBox="0 0 241 252" fill="none" xmlns="http://www.w3.org/2000/svg">
<path fill-rule="evenodd" clip-rule="evenodd" d="M120.242 230.683C174.877 230.683 219.168 186.392 219.168 131.757C219.168 77.1223 174.877 32.8319 120.242 32.8319C65.6073 32.8319 21.3169 77.1223 21.3169 131.757C21.3169 186.392 65.6073 230.683 120.242 230.683Z" stroke="#3AD29F" stroke-width="0.665663" stroke-dasharray="3.99 3.99"/>
<path fill-rule="evenodd" clip-rule="evenodd" d="M120.243 251.667C186.467 251.667 240.152 197.982 240.152 131.757C240.152 65.5333 186.467 11.848 120.243 11.848C54.0184 11.848 0.333136 65.5333 0.333136 131.757C0.333136 197.982 54.0184 251.667 120.243 251.667Z" stroke="#3AD29F" stroke-width="0.665663" stroke-dasharray="3.99 3.99"/>
<path d="M200.495 169.958C200.498 155.998 189.877 144.328 175.978 143.021C162.079 141.714 149.468 151.199 146.869 164.916L63.7349 162.661L64.6476 176.943C64.6476 176.943 52.7932 204.296 115.096 211.584V239.229H187.122V193.264C195.398 188.418 200.487 179.549 200.495 169.958Z" fill="url(#paint0_linear_1_281)"/>
<path d="M67.5025 177.543C67.5025 177.543 56.1511 203.736 115.816 210.724V237.211H184.794V167.067L66.6165 163.863L67.5025 177.543Z" fill="#FFCBB4"/>
<path d="M101.976 68.2351C98.2323 74.1433 90.4195 75.9187 84.4897 72.2087L47.4543 47.8038C41.546 44.0596 39.7706 36.2468 43.4806 30.317C47.2243 24.4169 55.0271 22.6424 60.9541 26.3434L97.9895 50.7483C103.902 54.4881 105.684 62.3018 101.976 68.2351Z" fill="url(#paint1_linear_1_281)"/>
<path d="M99.9243 66.9025C96.4439 72.3943 89.1819 74.0447 83.6699 70.5964L49.2325 47.8935C43.7407 44.4132 42.0903 37.1511 45.5386 31.6391C49.019 26.1472 56.281 24.4969 61.793 27.9452L96.2237 50.6348C101.726 54.1134 103.38 61.386 99.9243 66.9025Z" fill="#FFCBB4"/>
<path d="M171.7 196.755C186.007 196.755 197.604 185.157 197.604 170.851C197.604 156.545 186.007 144.947 171.7 144.947C157.394 144.947 145.797 156.545 145.797 170.851C145.797 185.157 157.394 196.755 171.7 196.755Z" fill="#FFCBB4"/>
<path d="M167.037 0H67.8057C65.5522 0 63.7254 1.82679 63.7254 4.08025V189.76C63.7254 192.014 65.5522 193.84 67.8057 193.84H167.037C169.291 193.84 171.118 192.014 171.118 189.76V4.08025C171.118 1.82679 169.291 0 167.037 0Z" fill="url(#paint2_linear_1_281)"/>
<path d="M165.119 2.62123H69.7172C67.2081 2.62123 65.174 4.65531 65.174 7.16447V186.682C65.174 189.191 67.2081 191.226 69.7172 191.226H165.119C167.628 191.226 169.662 189.191 169.662 186.682V7.16447C169.662 4.65531 167.628 2.62123 165.119 2.62123Z" fill="white"/>
<path d="M143.668 7.35093C143.044 11.4838 139.498 14.5432 135.318 14.5555H99.2318C95.0532 14.5416 91.5091 11.4826 90.8847 7.35093H71.7658C70.7131 7.35093 69.7033 7.7676 68.9586 8.51166C68.2139 9.25571 67.7955 10.2652 67.7955 11.3179V182.522C67.7955 183.575 68.2122 184.585 68.9562 185.329C69.7003 186.074 70.7098 186.492 71.7625 186.492H163.074C164.126 186.492 165.136 186.076 165.881 185.332C166.625 184.588 167.044 183.578 167.044 182.525V11.3213C167.044 10.2686 166.627 9.25869 165.883 8.51401C165.139 7.76934 164.13 7.35093 163.077 7.35093H143.668Z" fill="#E9ECFF"/>
<path d="M128.543 9.60586H106.59C106.222 9.60586 105.924 9.90411 105.924 10.272V10.3953C105.924 10.7632 106.222 11.0614 106.59 11.0614H128.543C128.911 11.0614 129.209 10.7632 129.209 10.3953V10.272C129.209 9.90411 128.911 9.60586 128.543 9.60586Z" fill="#DBDBDB"/>
<path d="M134.155 11.2744C134.754 11.2744 135.24 10.7885 135.24 10.1892C135.24 9.58991 134.754 9.10407 134.155 9.10407C133.556 9.10407 133.07 9.58991 133.07 10.1892C133.07 10.7885 133.556 11.2744 134.155 11.2744Z" fill="#DBDBDB"/>
<path d="M188.444 175.421C180.927 177.16 175.767 172.257 174.029 164.742L156.755 100.601C155.036 93.0571 159.731 85.5414 167.264 83.7767C174.807 82.058 182.323 86.7525 184.088 94.2854L198.184 160.082C199.922 167.6 195.959 173.682 188.444 175.421Z" fill="url(#paint3_linear_1_281)"/>
<path d="M182.15 95.8555C180.684 89.5124 174.354 85.5584 168.011 87.024C161.668 88.4896 157.714 94.8198 159.179 101.163L175.063 169.908C176.529 176.252 182.859 180.206 189.202 178.74C195.545 177.274 199.499 170.944 198.033 164.601L182.15 95.8555Z" fill="#FFCBB4"/>
<path d="M197.494 228.544H98.9019V251.527H197.494V228.544Z" fill="url(#paint4_linear_1_281)"/>
<path d="M194.83 231.209H101.567V249.195H194.83V231.209Z" fill="#4D8AF0"/>
<path d="M87.6004 137.043C83.9017 142.881 76.1824 144.636 70.3235 140.97L45.4856 124.899C39.6475 121.201 37.8929 113.481 41.5585 107.622C45.2572 101.784 52.9766 100.03 58.8355 103.695L83.6734 119.766C89.5114 123.465 91.2661 131.185 87.6004 137.043Z" fill="url(#paint5_linear_1_281)"/>
<path d="M81.3651 171.061C77.6334 176.952 69.8437 178.723 63.9316 175.024L48.5465 163.806C42.6549 160.075 40.8838 152.285 44.5828 146.373C48.3145 140.481 56.1042 138.71 62.0163 142.409L77.4014 153.631C83.291 157.362 85.0618 165.149 81.3651 171.061Z" fill="url(#paint6_linear_1_281)"/>
<g opacity="0.5">
<path d="M117.418 126.881C133.963 126.881 147.376 113.468 147.376 96.9233C147.376 80.3783 133.963 66.9659 117.418 66.9659C100.873 66.9659 87.4609 80.3783 87.4609 96.9233C87.4609 113.468 100.873 126.881 117.418 126.881Z" fill="url(#paint7_linear_1_281)"/>
</g>
<path d="M117.418 125.119C132.99 125.119 145.613 112.495 145.613 96.9235C145.613 81.3516 132.99 68.7281 117.418 68.7281C101.846 68.7281 89.2227 81.3516 89.2227 96.9235C89.2227 112.495 101.846 125.119 117.418 125.119Z" fill="#69F0AE"/>
<path d="M105.18 93.1594L115.752 102.852L130.731 80.8254L136.02 85.2321L115.752 111.665L100.774 94.9248L105.18 93.1594Z" fill="white"/>
<path d="M80.1227 170.225C76.6424 175.716 69.3803 177.367 63.8683 173.919L49.5191 163.473C44.0273 159.993 42.3769 152.731 45.8252 147.219C49.3056 141.727 56.5676 140.076 62.0796 143.525L76.4255 153.99C81.9063 157.469 83.5568 164.716 80.1227 170.225Z" fill="#FFCBB4"/>
<path d="M86.2348 136.161C82.7545 141.652 75.4924 143.303 69.9804 139.854L46.6114 124.733C41.1196 121.252 39.4692 113.99 42.9175 108.478C46.3978 102.986 53.6599 101.336 59.1719 104.784L82.541 119.906C88.0328 123.386 89.6831 130.649 86.2348 136.161Z" fill="#FFCBB4"/>
<path d="M94.0226 103.186C90.3056 109.049 82.5514 110.811 76.6657 107.129L45.1894 86.6347C39.3258 82.9178 37.5639 75.1636 41.2457 69.2778C44.9627 63.4142 52.7169 61.6524 58.6026 65.3342L90.0789 85.8287C95.9425 89.5456 97.7043 97.2998 94.0226 103.186Z" fill="url(#paint8_linear_1_281)"/>
<path d="M92.3501 102.12C88.8698 107.611 81.6077 109.262 76.0957 105.813L46.6146 86.618C41.1227 83.1377 39.4724 75.8756 42.9207 70.3636C46.401 64.8717 53.6631 63.2214 59.1751 66.6697L88.6529 85.8652C94.1459 89.3444 95.7978 96.6067 92.3501 102.12Z" fill="#FFCBB4"/>
<defs>
<linearGradient id="paint0_linear_1_281" x1="132.12" y1="239.246" x2="132.12" y2="142.905" gradientUnits="userSpaceOnUse">
<stop stop-color="#808080" stop-opacity="0.25"/>
<stop offset="0.54" stop-color="#808080" stop-opacity="0.12"/>
<stop offset="1" stop-color="#808080" stop-opacity="0.1"/>
</linearGradient>
<linearGradient id="paint1_linear_1_281" x1="72.7252" y1="74.1506" x2="72.7252" y2="24.4082" gradientUnits="userSpaceOnUse">
<stop stop-color="#808080" stop-opacity="0.25"/>
<stop offset="0.54" stop-color="#808080" stop-opacity="0.12"/>
<stop offset="1" stop-color="#808080" stop-opacity="0.1"/>
</linearGradient>
<linearGradient id="paint2_linear_1_281" x1="117.422" y1="193.837" x2="117.422" y2="-0.00332749" gradientUnits="userSpaceOnUse">
<stop stop-color="#808080" stop-opacity="0.25"/>
<stop offset="0.54" stop-color="#808080" stop-opacity="0.12"/>
<stop offset="1" stop-color="#808080" stop-opacity="0.1"/>
</linearGradient>
<linearGradient id="paint3_linear_1_281" x1="177.493" y1="175.767" x2="177.493" y2="83.4169" gradientUnits="userSpaceOnUse">
<stop stop-color="#808080" stop-opacity="0.25"/>
<stop offset="0.54" stop-color="#808080" stop-opacity="0.12"/>
<stop offset="1" stop-color="#808080" stop-opacity="0.1"/>
</linearGradient>
<linearGradient id="paint4_linear_1_281" x1="148.205" y1="251.52" x2="148.205" y2="228.537" gradientUnits="userSpaceOnUse">
<stop stop-color="#808080" stop-opacity="0.25"/>
<stop offset="0.54" stop-color="#808080" stop-opacity="0.12"/>
<stop offset="1" stop-color="#808080" stop-opacity="0.1"/>
</linearGradient>
<linearGradient id="paint5_linear_1_281" x1="64.5745" y1="142.886" x2="64.5745" y2="101.783" gradientUnits="userSpaceOnUse">
<stop stop-color="#808080" stop-opacity="0.25"/>
<stop offset="0.54" stop-color="#808080" stop-opacity="0.12"/>
<stop offset="1" stop-color="#808080" stop-opacity="0.1"/>
</linearGradient>
<linearGradient id="paint6_linear_1_281" x1="62.9756" y1="176.956" x2="62.9756" y2="140.474" gradientUnits="userSpaceOnUse">
<stop stop-color="#808080" stop-opacity="0.25"/>
<stop offset="0.54" stop-color="#808080" stop-opacity="0.12"/>
<stop offset="1" stop-color="#808080" stop-opacity="0.1"/>
</linearGradient>
<linearGradient id="paint7_linear_1_281" x1="117.418" y1="126.881" x2="117.418" y2="66.9626" gradientUnits="userSpaceOnUse">
<stop stop-color="#808080" stop-opacity="0.25"/>
<stop offset="0.54" stop-color="#808080" stop-opacity="0.12"/>
<stop offset="1" stop-color="#808080" stop-opacity="0.1"/>
</linearGradient>
<linearGradient id="paint8_linear_1_281" x1="67.6325" y1="109.064" x2="67.6325" y2="63.4223" gradientUnits="userSpaceOnUse">
<stop stop-color="#808080" stop-opacity="0.25"/>
<stop offset="0.54" stop-color="#808080" stop-opacity="0.12"/>
<stop offset="1" stop-color="#808080" stop-opacity="0.1"/>
</linearGradient>
</defs>
</svg>
