<svg width="37" height="7" viewBox="0 0 37 7" fill="none" xmlns="http://www.w3.org/2000/svg">
<path fill-rule="evenodd" clip-rule="evenodd" d="M30.9253 3.03731C30.9253 4.71476 32.2852 6.07461 33.9626 6.07461C35.6401 6.07461 37 4.71476 37 3.03731C37 1.35985 35.6401 0 33.9626 0C32.2852 0 30.9253 1.35985 30.9253 3.03731ZM36.4477 3.03732C36.4477 4.40978 35.3351 5.52239 33.9626 5.52239C32.5902 5.52239 31.4776 4.40978 31.4776 3.03732C31.4776 1.66485 32.5902 0.55225 33.9626 0.55225C35.3351 0.55225 36.4477 1.66485 36.4477 3.03732Z" fill="#F8F9F9"/>
<path fill-rule="evenodd" clip-rule="evenodd" d="M23.1941 3.03731C23.1941 4.71476 24.5539 6.07461 26.2314 6.07461C27.9088 6.07461 29.2687 4.71476 29.2687 3.03731C29.2687 1.35985 27.9088 0 26.2314 0C24.5539 0 23.1941 1.35985 23.1941 3.03731ZM28.7164 3.03732C28.7164 4.40978 27.6038 5.52239 26.2313 5.52239C24.8589 5.52239 23.7463 4.40978 23.7463 3.03732C23.7463 1.66485 24.8589 0.55225 26.2313 0.55225C27.6038 0.55225 28.7164 1.66485 28.7164 3.03732Z" fill="#F8F9F9"/>
<path fill-rule="evenodd" clip-rule="evenodd" d="M18.5 6.07461C20.1774 6.07461 21.5373 4.71476 21.5373 3.03731C21.5373 1.35985 20.1774 0 18.5 0C16.8225 0 15.4627 1.35985 15.4627 3.03731C15.4627 4.71476 16.8225 6.07461 18.5 6.07461Z" fill="#F8F9F9"/>
<path fill-rule="evenodd" clip-rule="evenodd" d="M10.7687 6.07461C12.4462 6.07461 13.806 4.71476 13.806 3.03731C13.806 1.35985 12.4462 0 10.7687 0C9.09124 0 7.7314 1.35985 7.7314 3.03731C7.7314 4.71476 9.09124 6.07461 10.7687 6.07461Z" fill="#F8F9F9"/>
<path fill-rule="evenodd" clip-rule="evenodd" d="M3.03731 6.07461C4.71476 6.07461 6.07461 4.71476 6.07461 3.03731C6.07461 1.35985 4.71476 0 3.03731 0C1.35985 0 0 1.35985 0 3.03731C0 4.71476 1.35985 6.07461 3.03731 6.07461Z" fill="#F8F9F9"/>
</svg>
