<svg width="10" height="6" viewBox="0 0 10 6" fill="none" xmlns="http://www.w3.org/2000/svg">
<path d="M5 5.87444C4.88042 5.87444 4.76442 5.85202 4.65202 5.80717C4.53961 5.76233 4.44634 5.70254 4.3722 5.6278L0.246636 1.50224C0.0822119 1.33782 0 1.12855 0 0.874439C0 0.620328 0.0822119 0.411061 0.246636 0.246636C0.411061 0.0822119 0.620329 0 0.874439 0C1.12855 0 1.33782 0.0822119 1.50224 0.246636L5 3.74439L8.49776 0.246636C8.66218 0.0822119 8.87145 0 9.12556 0C9.37967 0 9.58894 0.0822119 9.75336 0.246636C9.91778 0.411061 10 0.620328 10 0.874439C10 1.12855 9.91778 1.33782 9.75336 1.50224L5.6278 5.6278C5.53811 5.71749 5.44095 5.78116 5.33632 5.81883C5.23169 5.8565 5.11958 5.87504 5 5.87444Z" fill="black"/>
</svg>
