<svg width="22" height="30" viewBox="0 0 22 30" fill="none" xmlns="http://www.w3.org/2000/svg">
<path d="M10.9999 17.9995C8.08364 18.0032 5.28729 19.1632 3.22492 21.2244C1.1637 23.2869 0.00383995 26.0832 0 28.9994C0 29.2644 0.104997 29.5194 0.292496 29.7068C0.479994 29.8943 0.734986 29.9993 0.999974 29.9993H20.9997C21.2647 29.9993 21.5197 29.8943 21.7072 29.7068C21.8947 29.5193 21.9997 29.2643 21.9997 28.9994C21.9959 26.0831 20.836 23.2868 18.7748 21.2244C16.7123 19.1632 13.916 18.0033 10.9998 17.9995H10.9999ZM2.05629 27.9994C2.38627 25.0394 4.16001 22.4356 6.79255 21.0433C9.42503 19.6521 12.5749 19.6521 15.2075 21.0433C17.84 22.4358 19.6138 25.0394 19.9437 27.9994H2.05629ZM16.9998 9.9996C16.9998 8.40836 16.3673 6.88214 15.2423 5.75709C14.1173 4.63212 12.5911 3.99961 10.9998 3.99961C9.40852 3.99961 7.88233 4.63212 6.75729 5.75709C5.63231 6.88207 4.99981 8.40832 4.99981 9.9996C4.99981 11.5909 5.63231 13.1171 6.75729 14.2421C7.88227 15.3671 9.40852 15.9996 10.9998 15.9996C12.591 15.9983 14.116 15.3646 15.241 14.2409C16.3648 13.1159 16.9985 11.5909 16.9998 9.99963L16.9998 9.9996ZM6.99991 9.9996C6.99991 8.38212 7.97491 6.92338 9.46862 6.30461C10.9636 5.68462 12.6849 6.02711 13.8286 7.17084C14.9723 8.31457 15.3148 10.0358 14.6948 11.5308C14.076 13.0245 12.6173 13.9995 10.9998 13.9995C8.79109 13.997 7.00241 12.2082 6.99985 9.99954L6.99991 9.9996ZM21.9997 8.99961V10.9996C21.9972 11.7421 21.5822 12.4221 20.9222 12.7633C20.7422 13.9408 20.146 15.0145 19.2435 15.7908C18.341 16.567 17.191 16.9957 15.9997 16.9995C15.4472 16.9995 14.9997 16.552 14.9997 15.9995C14.9997 15.447 15.4472 14.9995 15.9997 14.9995C17.3934 14.997 18.6022 14.0333 18.9159 12.6758C18.3459 12.3083 18.0009 11.6771 17.9997 10.9996V8.99958C17.9997 8.45584 18.2234 7.93585 18.6172 7.56085C17.9234 5.39464 16.3409 3.62458 14.2636 2.69595C12.1874 1.76723 9.81248 1.76723 7.73635 2.69595C5.65887 3.62467 4.07624 5.39467 3.3828 7.56085C3.77656 7.93585 4.0003 8.45584 4.0003 8.99958V10.9996C4.0003 12.1045 3.1053 12.9995 2.00033 12.9995C0.895349 12.9995 0.000351863 12.1045 0.000351863 10.9996V8.99958C0.0041019 8.11585 0.586585 7.3396 1.43534 7.09087C2.27159 4.33714 4.25406 2.07717 6.87527 0.889669C9.49773 -0.296556 12.5027 -0.296556 15.1251 0.889669C17.7463 2.07714 19.7289 4.33699 20.565 7.09087C21.4137 7.33962 21.9963 8.11585 22 8.99958L21.9997 8.99961Z" fill="#4968AF"/>
</svg>
