<svg width="27" height="11" viewBox="0 0 27 11" fill="none" xmlns="http://www.w3.org/2000/svg">
<path fill-rule="evenodd" clip-rule="evenodd" d="M23.1401 0H1.65577C0.741313 0 0 0.736187 0 1.65313V8.81626C0 9.72925 0.742092 10.4694 1.65577 10.4694H23.1401C24.0546 10.4694 24.7959 9.7332 24.7959 8.81626V1.65313C24.7959 0.740131 24.0538 0 23.1401 0ZM0.55102 1.65314C0.55102 1.04228 1.04387 0.551032 1.65577 0.551032H23.1401C23.75 0.551032 24.2449 1.04497 24.2449 1.65314V8.81627C24.2449 9.42713 23.752 9.91837 23.1401 9.91837H1.65577C1.04591 9.91837 0.55102 9.42444 0.55102 8.81627V1.65314Z" fill="#7ED321"/>
<path fill-rule="evenodd" clip-rule="evenodd" d="M1.60294 1.10208C1.32629 1.10208 1.10202 1.32635 1.10202 1.603V8.86645C1.10202 9.14311 1.32629 9.36738 1.60294 9.36738H11.0204V1.10208H1.60294Z" fill="#7ED321"/>
<path fill-rule="evenodd" clip-rule="evenodd" d="M27 5.23468C27 6.2162 26.2815 7.0282 25.3469 7.16325V3.30611C26.2815 3.44116 27 4.25316 27 5.23468Z" fill="#7ED321"/>
</svg>
