<svg width="14" height="10" viewBox="0 0 14 10" fill="none" xmlns="http://www.w3.org/2000/svg">
<path fill-rule="evenodd" clip-rule="evenodd" d="M6.66193 1.68986C8.81723 1.68986 10.7815 2.48383 12.2876 3.78574L13.3333 2.63123C11.5495 1.08274 9.21985 0 6.66193 0C4.10789 0 1.78155 1.07945 0 2.62301L1.04349 3.77917C2.54848 2.48109 4.50941 1.68986 6.66193 1.68986ZM6.66184 5.02245C7.95357 5.02245 9.13368 5.49149 10.0439 6.26409L11.1501 5.04218C9.94615 4.00876 8.38008 3.33369 6.66184 3.33369C4.94693 3.33369 3.38196 4.00711 2.17909 5.03725L3.28367 6.2608C4.19333 5.48985 5.37177 5.02245 6.66184 5.02245ZM8.93712 7.48603C8.32124 6.9748 7.52821 6.62083 6.66131 6.62083C5.79608 6.62083 5.00416 6.97425 4.38828 7.48329L6.66131 10L8.93712 7.48603Z" fill="#F8F9F9"/>
</svg>
