<svg width="50" height="50" viewBox="0 0 50 50" fill="none" xmlns="http://www.w3.org/2000/svg">
<path d="M39.3116 28.6235C33.4178 28.6235 28.623 33.4182 28.623 39.3121C28.623 45.2055 33.4178 50.0002 39.3116 50.0002C45.2055 50.0002 50.0002 45.2055 50.0002 39.3121C50.0002 33.4182 45.2055 28.6235 39.3116 28.6235ZM43.7534 40.3991H40.3986V43.7539C40.3986 44.3542 39.9119 44.8408 39.3116 44.8408C38.7114 44.8408 38.2247 44.3542 38.2247 43.7539V40.3991H34.8693C34.2691 40.3991 33.7824 39.9124 33.7824 39.3121C33.7824 38.7119 34.2691 38.2252 34.8693 38.2252H38.2247V34.8698C38.2247 34.2696 38.7114 33.7829 39.3116 33.7829C39.9119 33.7829 40.3986 34.2696 40.3986 34.8698V38.2252H43.7534C44.3537 38.2252 44.8404 38.7119 44.8404 39.3121C44.8404 39.9124 44.3537 40.3991 43.7534 40.3991Z" fill="#4968AF"/>
<path d="M24.1848 7.14164C23.8669 7.14164 23.5649 7.00259 23.3584 6.76057L17.5856 0H0V40.2609H26.497C26.4739 39.9464 26.4489 39.6322 26.4489 39.3119C26.4489 32.2197 32.2191 26.4495 39.3114 26.4495C43.7618 26.4495 47.6898 28.7229 50 32.1679V7.14164H24.1848ZM19.3184 10.0013C21.9604 10.0013 24.1094 12.1502 24.1094 14.7923C24.1094 17.4343 21.9604 19.5833 19.3184 19.5833C16.6764 19.5833 14.5274 17.4343 14.5274 14.7923C14.5274 12.1502 16.6764 10.0013 19.3184 10.0013ZM28.704 29.1679C28.704 29.7682 28.2173 30.2549 27.6171 30.2549H11.0198C10.4195 30.2549 9.93281 29.7682 9.93281 29.1679V25.0478C9.93281 22.8181 11.7463 21.0046 13.976 21.0046H24.6609C26.8905 21.0046 28.704 22.8181 28.704 25.0478V29.1679Z" fill="#4968AF"/>
</svg>
