<svg width="69" height="50" viewBox="0 0 69 50" fill="none" xmlns="http://www.w3.org/2000/svg">
<g clip-path="url(#clip0_411_8234)">
<path d="M64.0042 37.5H59.8333V12.4917C59.8333 10.1917 57.9708 8.33334 55.6708 8.33334H14V4.15834C14 3.61154 14.1078 3.07015 14.3174 2.56508C14.5268 2.06001 14.8339 1.60126 15.2209 1.21501C15.6079 0.828759 16.0673 0.522648 16.5728 0.314175C17.0783 0.105703 17.6199 -0.00110253 18.1667 8.58085e-06H64.0042C64.5506 -0.000546975 65.0918 0.106606 65.5968 0.315356C66.1017 0.524106 66.5607 0.830287 66.9472 1.21647C67.3338 1.60265 67.6405 2.06126 67.8497 2.56605C68.059 3.07084 68.1667 3.61195 68.1667 4.15834V33.3417C68.1667 33.8881 68.059 34.4292 67.8497 34.934C67.6405 35.4388 67.3338 35.8974 66.9472 36.2836C66.5607 36.6697 66.1017 36.976 65.5968 37.1847C65.0918 37.3934 64.5506 37.5006 64.0042 37.5Z" fill="#4968AF"/>
<path d="M1.38867 20.8333H55.5512V16.6583C55.5512 14.3583 53.6887 12.5 51.3887 12.5H5.55117C3.25117 12.5 1.38867 14.3625 1.38867 16.6583V20.8333Z" fill="#4968AF"/>
<path d="M55.5553 45.8415V29.1665H1.38867V45.8415C1.38867 46.3883 1.49651 46.9297 1.706 47.4348C1.9155 47.9398 2.22255 48.3986 2.60957 48.7848C2.99658 49.1711 3.45598 49.4772 3.96146 49.6857C4.46693 49.8942 5.00856 50.0009 5.55534 49.9998H51.3928C51.9393 50.0004 52.4805 49.8932 52.9855 49.6845C53.4904 49.4757 53.9494 49.1696 54.3359 48.7834C54.7225 48.3972 55.0292 47.9386 55.2384 47.4338C55.4476 46.929 55.5553 46.388 55.5553 45.8415Z" fill="#4968AF"/>
</g>
<defs>
<clipPath id="clip0_411_8234">
<rect width="68.0556" height="50" fill="white"/>
</clipPath>
</defs>
</svg>
